<svg width="18" height="17" viewBox="0 0 18 17" fill="none" xmlns="http://www.w3.org/2000/svg">
<path d="M17.3337 8.58329V11.1666C17.3337 13.0335 17.3337 13.9669 16.9703 14.6799C16.6508 15.3071 16.1408 15.8171 15.5136 16.1366C14.8006 16.5 13.8672 16.5 12.0003 16.5H6.00033C4.13348 16.5 3.20006 16.5 2.48702 16.1366C1.85982 15.8171 1.34988 15.3071 1.0303 14.6799C0.666992 13.9669 0.666992 13.0335 0.666992 11.1666V6.83329C0.666992 4.96645 0.666992 4.03303 1.0303 3.31999C1.34988 2.69278 1.85982 2.18285 2.48702 1.86327C3.20006 1.49996 4.13348 1.49996 6.00033 1.49996H9.41699M14.8337 5.66663V0.666626M12.3337 3.16663H17.3337M12.3337 8.99996C12.3337 10.8409 10.8413 12.3333 9.00033 12.3333C7.15938 12.3333 5.66699 10.8409 5.66699 8.99996C5.66699 7.15901 7.15938 5.66663 9.00033 5.66663C10.8413 5.66663 12.3337 7.15901 12.3337 8.99996Z" stroke="#3B3B3B" stroke-linecap="round" stroke-linejoin="round"/>
</svg>
